<svg id="Layer_1" data-name="Layer 1" xmlns="http://www.w3.org/2000/svg" viewBox="0 0 290.9 290.9"><defs><style>.cls-1{fill:#3c3c3b;}</style></defs><circle class="cls-1" cx="204.61" cy="49.7" r="7.71"/><path class="cls-1" d="M217,78.09a4.7,4.7,0,1,0-4.7-4.7A4.69,4.69,0,0,0,217,78.09Z"/><path class="cls-1" d="M182.46,119.27c1.6,2.49,4,3.33,9.76,5.27,5.3-1.75,14.76-9.59,16.53-18.34.26-1.39-1-1.58-1.48-1.16-3.19,3-11.21,9.33-13.68,5.84-2.88-5,15.73-14.94,12.4-25.33a9.65,9.65,0,0,0-3.11-4.62,1,1,0,0,0-1.44.27c-1.74,2.55-7.46,10.5-13.1,13.87h0C185.58,102.52,180.12,115.62,182.46,119.27Z"/><path class="cls-1" d="M238,164.57c-6.4-19.16-24.81-31.55-42.56-34.84-4.84-.7-4.38-4.13-3.21-5.19h0l.07,0c-5.72-1.94-8.27-2.75-9.87-5.24-2.34-3.65,3.12-16.75,5.88-24.21-8-12.39-23.84-19.29-40.73-16.25-22.39,4-38.16,24-35.23,44.51,2.15,15.05,13.73,26.23,28.56,29.57a2.9,2.9,0,0,1,1.06,5.23,77.76,77.76,0,0,1-15.7,7.65c-25.1,9.5-57.92.78-74.19-20.87-9,35.81,12.34,113.52,112.24,103C223.53,241.74,249.46,198.88,238,164.57ZM163.33,90.91c1.67-1.34,5.52.67,8.6,4.5s4.23,8,2.56,9.37-5.52-.68-8.6-4.5S161.66,92.25,163.33,90.91Zm-48.54,136c16-2,20.49-8.43,20.49-8.43-21.42,4.68-54.95-5.82-59.45-33,21.72,7.53,42.82,7.17,66.15-4.77,21.18-10.84,40.34-6.33,46.32,7.36C197.57,209.35,171.16,241.58,114.79,226.93Z"/></svg>